<mxfile host="app.diagrams.net" agent="Mozilla/5.0 (Windows NT 10.0; Win64; x64) AppleWebKit/537.36 (KHTML, like Gecko) Chrome/135.0.0.0 Safari/537.36" version="26.2.5">
  <diagram name="PÃ¡gina-1" id="zWMaaqcK-kP3D1JS3zAp">
    <mxGraphModel dx="1428" dy="743" grid="0" gridSize="10" guides="1" tooltips="1" connect="1" arrows="1" fold="1" page="1" pageScale="1" pageWidth="827" pageHeight="1169" background="light-dark(#FFFFFF,#FFFFFF)" math="0" shadow="0">
      <root>
        <mxCell id="0" />
        <mxCell id="1" parent="0" />
        <mxCell id="cBr8gDmyRps6xQAc9MPF-2" value="INICIO" style="rounded=1;whiteSpace=wrap;html=1;fillColor=light-dark(#FFFFFF,#FFCCFF);" parent="1" vertex="1">
          <mxGeometry x="339" y="110" width="150" height="90" as="geometry" />
        </mxCell>
        <mxCell id="QmFv0fbfAH81bjIsWUIX-1" value="" style="shape=parallelogram;perimeter=parallelogramPerimeter;whiteSpace=wrap;html=1;fixedSize=1;fillColor=#60a917;fontColor=#ffffff;strokeColor=#2D7600;" vertex="1" parent="1">
          <mxGeometry x="314" y="270" width="200" height="100" as="geometry" />
        </mxCell>
        <mxCell id="QmFv0fbfAH81bjIsWUIX-2" value="" style="endArrow=classic;html=1;rounded=0;" edge="1" parent="1">
          <mxGeometry width="50" height="50" relative="1" as="geometry">
            <mxPoint x="414" y="200" as="sourcePoint" />
            <mxPoint x="414" y="270" as="targetPoint" />
            <Array as="points" />
          </mxGeometry>
        </mxCell>
        <mxCell id="QmFv0fbfAH81bjIsWUIX-3" value="FIMALGORITMO" style="rounded=1;whiteSpace=wrap;html=1;fillColor=light-dark(#FFFFFF,#FFCCFF);" vertex="1" parent="1">
          <mxGeometry x="364" y="861" width="150" height="90" as="geometry" />
        </mxCell>
        <mxCell id="QmFv0fbfAH81bjIsWUIX-4" value="" style="rhombus;whiteSpace=wrap;html=1;" vertex="1" parent="1">
          <mxGeometry x="65" y="138" width="152" height="140" as="geometry" />
        </mxCell>
        <mxCell id="QmFv0fbfAH81bjIsWUIX-5" value="" style="ellipse;whiteSpace=wrap;html=1;aspect=fixed;" vertex="1" parent="1">
          <mxGeometry x="94" y="334" width="80" height="80" as="geometry" />
        </mxCell>
      </root>
    </mxGraphModel>
  </diagram>
</mxfile>
